<?xml version="1.0" encoding="utf-8"?>
<!-- Generator: Adobe Illustrator 27.9.0, SVG Export Plug-In . SVG Version: 6.00 Build 0)  -->
<svg version="1.1" id="Layer_1" xmlns="http://www.w3.org/2000/svg" xmlns:xlink="http://www.w3.org/1999/xlink" x="0px" y="0px"
	 viewBox="0 0 144 75.26" style="enable-background:new 0 0 144 75.26;" xml:space="preserve">
<style type="text/css">
	.st0{font-family:'TimesNewRomanPSMT';}
	.st1{font-size:45.3555px;}
	.st2{fill:#FFF200;}
	.st3{fill:#92278F;}
	.st4{fill:none;}
</style>
<g>
	<text transform="matrix(0.7024 1.203700e-03 -7.009226e-04 1 4.2336 34.6707)" class="st0 st1">Travelon</text>
	<g>
		<path class="st2" d="M5.4,66.94l-0.26-7.39h0.6c0.08,1.43,0.31,2.55,0.69,3.39c0.38,0.83,0.84,1.4,1.38,1.69
			c0.41,0.21,1.12,0.32,2.1,0.32h2.53l-0.02-24.05c0-1.77-0.12-2.89-0.34-3.39c-0.37-0.8-1.01-1.2-1.9-1.2H9.43v-0.86l8.94-0.02
			v0.86h-0.74c-0.81,0-1.43,0.32-1.81,0.98c-0.28,0.48-0.41,1.69-0.41,3.62l0.02,24.05h2.96c0.88,0,1.57-0.21,2.1-0.64
			c0.54-0.43,0.97-1.09,1.27-1.98c0.2-0.55,0.35-1.49,0.46-2.78h0.58l-0.23,7.39L5.4,66.94z"/>
		<path class="st2" d="M27.03,57.32l-4.32-2.6l0.15-0.83c0.4,0.23,0.77,0.35,1.09,0.35c0.28,0,0.49-0.11,0.68-0.32
			s0.31-0.57,0.37-1.03c0.06-0.48,0.11-1.95,0.09-4.42v-8.23c0-1.24-0.03-1.98-0.08-2.26c-0.11-0.54-0.29-0.94-0.54-1.18
			c-0.35-0.34-0.89-0.51-1.61-0.51v-0.83l7.29-0.02v0.83c-0.64,0-1.14,0.14-1.47,0.41c-0.34,0.28-0.58,0.63-0.72,1.04
			c-0.2,0.6-0.29,1.49-0.29,2.67V50.6c0.49,1.46,0.98,2.5,1.44,3.13c0.21,0.31,0.41,0.46,0.6,0.46c0.21,0,0.55-0.26,1-0.8
			c0.45-0.54,0.86-0.8,1.23-0.8c0.37,0,0.69,0.21,0.97,0.63c0.28,0.41,0.4,0.92,0.4,1.54c0,0.68-0.18,1.27-0.55,1.8
			s-0.84,0.78-1.41,0.78c-1.26,0-2.47-1.6-3.67-4.78v4.78L27.03,57.32z"/>
		<path class="st2" d="M42.65,35.78c0.31-0.52,0.71-0.78,1.21-0.78c1.06,0,2.17,1.15,3.33,3.47v1.31c-0.63-0.92-1.04-1.49-1.26-1.69
			c-0.12-0.11-0.28-0.17-0.43-0.17s-0.29,0.08-0.41,0.23c-0.12,0.15-0.2,0.46-0.26,0.92c-0.05,0.46-0.08,1.7-0.08,3.73v7.22
			c0,2.06-0.09,3.42-0.28,4.08c-0.29,1.03-0.74,1.77-1.35,2.26c-0.81,0.63-1.84,0.95-3.12,0.95c-1.64,0-2.93-0.55-3.84-1.66
			c-0.91-1.11-1.37-2.33-1.37-3.67c0-0.69,0.12-1.24,0.37-1.64c0.25-0.4,0.55-0.6,0.94-0.6c0.4,0,0.71,0.18,0.95,0.58
			c0.25,0.38,0.37,0.94,0.37,1.64l-0.03,1.35c0,0.68,0.2,1.27,0.6,1.81c0.38,0.52,0.91,0.78,1.55,0.78c0.86,0,1.52-0.4,1.97-1.18
			c0.45-0.78,0.68-2.24,0.68-4.36v-0.83c-2.44-1.32-4.19-2.46-5.25-3.38c-1.06-0.92-1.8-1.92-2.21-2.96
			c-0.31-0.75-0.48-1.66-0.48-2.69c0-1.64,0.32-2.96,0.95-3.96c0.64-1.01,1.44-1.52,2.44-1.52c0.63,0,1.23,0.18,1.8,0.58
			c0.37,0.26,1.29,1.23,2.75,2.92C42.19,37.21,42.34,36.3,42.65,35.78z M39.07,37.67c-0.58,0-1.09,0.37-1.54,1.11
			c-0.45,0.74-0.68,1.66-0.66,2.78c0,0.88,0.18,1.69,0.54,2.44c0.35,0.74,0.94,1.46,1.77,2.13c0.46,0.38,1.47,1.04,3.04,1.97V40
			C40.9,38.44,39.86,37.67,39.07,37.67z"/>
		<path class="st2" d="M47.52,55.8c0.52-0.12,0.86-0.26,1.04-0.4c0.32-0.25,0.58-0.55,0.8-0.92c0.21-0.37,0.43-0.97,0.64-1.8
			l5.07-17.95h0.64l5.07,18.23c0.29,1.07,0.61,1.86,0.98,2.32c0.2,0.26,0.58,0.41,1.12,0.49v0.86h-4.65v-0.86
			c0.54,0,0.89-0.05,1.07-0.12c0.17-0.09,0.32-0.25,0.43-0.48c0.08-0.14,0.12-0.32,0.12-0.54c0-0.45-0.12-1.11-0.35-1.97
			l-3.33-12.18l-3.3,11.75c-0.21,0.74-0.32,1.38-0.32,1.92c0,0.49,0.11,0.89,0.32,1.18c0.21,0.29,0.52,0.45,0.92,0.45h0.43v0.86
			l-6.71,0.02C47.52,56.66,47.52,55.8,47.52,55.8z"/>
		<path class="st2" d="M76.42,48.6c0,2.63-0.51,4.73-1.54,6.3c-1.03,1.57-2.33,2.36-3.93,2.36c-1.89,0-3.46-1.01-4.71-3.04
			c-1.24-2.03-1.87-4.87-1.87-8.51c0-3.36,0.6-6.04,1.83-8.02c1.21-2,2.69-2.98,4.39-2.99c1.58,0,2.89,0.86,3.93,2.61
			c1.04,1.74,1.69,3.67,1.9,5.79l-0.48,0.46c-0.46-1.86-1.04-3.16-1.74-3.93s-1.5-1.15-2.44-1.14c-1.4,0-2.63,0.91-3.65,2.7
			c-1.03,1.8-1.55,4.27-1.54,7.43L76.42,48.6z M67.77,54.13c0.68,1,1.44,1.49,2.3,1.49c0.55,0,1.09-0.25,1.61-0.74
			c0.51-0.49,0.91-1.18,1.15-2.04c0.17-0.55,0.28-1.52,0.32-2.87l-6.59,0.02C66.7,51.74,67.08,53.13,67.77,54.13z"/>
		<path class="st2" d="M82.53,68.34l-4.25-2.6l0.26-0.81c0.41,0.25,0.75,0.37,1.03,0.37c0.25,0,0.45-0.11,0.61-0.31
			c0.15-0.2,0.28-0.58,0.35-1.12c0.06-0.55,0.11-2.03,0.11-4.42l-0.02-19.3c0-1.32-0.06-2.2-0.2-2.67c-0.14-0.46-0.32-0.8-0.55-1
			c-0.25-0.2-0.69-0.29-1.34-0.29v-0.83l6.99-0.02v0.83c-0.74,0-1.24,0.11-1.5,0.34c-0.28,0.23-0.48,0.55-0.6,0.98
			c-0.14,0.43-0.18,1.32-0.18,2.64l0.02,28.19h-0.72V68.34z"/>
		<path class="st2" d="M90.78,55.82c-1.06-0.92-1.92-2.33-2.56-4.27c-0.64-1.92-0.98-3.87-0.98-5.8c0-2.67,0.54-5.08,1.6-7.25
			c1.26-2.55,2.96-3.84,5.11-3.84c1.32,0,2.52,0.49,3.58,1.47c1.07,0.98,1.92,2.46,2.53,4.41c0.61,1.95,0.92,3.87,0.92,5.77
			c0,2.7-0.55,5.11-1.66,7.2c-1.31,2.44-3.04,3.67-5.19,3.67C92.96,57.2,91.84,56.74,90.78,55.82z M96.47,53.45
			c1.09-2.17,1.63-5.14,1.63-8.92c0-3.01-0.32-5.14-0.98-6.37s-1.47-1.86-2.49-1.86c-1.35,0-2.44,1.12-3.26,3.36
			c-0.83,2.24-1.23,4.91-1.23,8.02c0,1.92,0.17,3.49,0.52,4.71c0.34,1.21,0.8,2.07,1.35,2.56s1.11,0.74,1.66,0.74
			C94.8,55.7,95.74,54.94,96.47,53.45z"/>
		<path class="st2" d="M107.25,57.17h-0.68l-4.3-2.6l0.23-0.84c0.4,0.23,0.75,0.35,1.04,0.35c0.28,0,0.49-0.11,0.64-0.31
			c0.15-0.2,0.28-0.58,0.35-1.14c0.08-0.55,0.11-2.1,0.11-4.67v-7.89c0-1.55-0.12-2.6-0.38-3.15c-0.26-0.55-0.75-0.83-1.47-0.81
			h-0.31v-0.83l7.05-0.02v0.83c-0.78,0-1.29,0.11-1.55,0.31c-0.26,0.21-0.46,0.54-0.6,0.98c-0.11,0.34-0.17,1.23-0.17,2.67
			l0.02,11.21c1.23,2.01,2.46,3.01,3.69,3.01c0.8,0,1.37-0.45,1.7-1.31c0.34-0.88,0.51-2.27,0.51-4.21v-8.71
			c0-1.23-0.02-1.95-0.06-2.18c-0.11-0.58-0.29-1.03-0.55-1.34c-0.26-0.31-0.74-0.45-1.4-0.45h-0.29v-0.83l7.05-0.02v0.83
			c-0.69,0-1.15,0.11-1.41,0.32c-0.26,0.21-0.45,0.52-0.55,0.91c-0.15,0.48-0.21,1.4-0.21,2.73v9.08c0,1.92-0.11,3.35-0.34,4.27
			c-0.32,1.34-0.78,2.29-1.34,2.87c-0.55,0.58-1.23,0.88-2.01,0.88c-1.52,0-3.1-1.49-4.78-4.5L107.25,57.17z"/>
	</g>
	<g>
		<path class="st3" d="M5.4,68.6l-0.26-7.39h0.6c0.08,1.43,0.31,2.55,0.69,3.39c0.38,0.83,0.84,1.4,1.38,1.69
			c0.41,0.21,1.12,0.32,2.1,0.32h2.53l-0.02-24.05c0-1.77-0.12-2.89-0.34-3.39c-0.37-0.8-1.01-1.2-1.9-1.2H9.43v-0.86l8.94-0.02
			v0.86h-0.74c-0.81,0-1.43,0.32-1.81,0.98c-0.28,0.48-0.41,1.69-0.41,3.62l0.02,24.05h2.96c0.88,0,1.57-0.21,2.1-0.64
			c0.54-0.43,0.97-1.09,1.27-1.98c0.2-0.55,0.35-1.49,0.46-2.78h0.58l-0.2,7.36L5.4,68.6z"/>
		<path class="st3" d="M27.03,58.97l-4.32-2.6l0.15-0.83c0.4,0.23,0.77,0.35,1.09,0.35c0.28,0,0.49-0.11,0.68-0.32
			c0.18-0.21,0.31-0.57,0.37-1.03c0.06-0.48,0.11-1.95,0.09-4.42v-8.23c0-1.24-0.03-1.98-0.08-2.26c-0.11-0.54-0.29-0.94-0.54-1.18
			c-0.35-0.34-0.89-0.51-1.61-0.51v-0.86l7.29-0.02v0.83c-0.64,0-1.14,0.14-1.47,0.41s-0.58,0.63-0.72,1.04
			c-0.2,0.6-0.29,1.49-0.29,2.67v10.18c0.49,1.46,0.98,2.5,1.44,3.13c0.21,0.31,0.41,0.46,0.6,0.46c0.21,0,0.55-0.26,1-0.8
			c0.45-0.54,0.86-0.8,1.23-0.8c0.37,0,0.69,0.21,0.97,0.63c0.28,0.41,0.4,0.92,0.4,1.54c0,0.68-0.18,1.27-0.55,1.8
			c-0.37,0.52-0.84,0.78-1.41,0.78c-1.26,0-2.47-1.6-3.67-4.78v4.78L27.03,58.97z"/>
		<path class="st3" d="M42.65,37.42c0.31-0.52,0.71-0.78,1.21-0.78c1.06,0,2.17,1.15,3.33,3.47v1.31c-0.63-0.92-1.04-1.49-1.26-1.69
			c-0.12-0.11-0.28-0.17-0.43-0.17s-0.29,0.08-0.41,0.23c-0.12,0.15-0.2,0.46-0.26,0.92c-0.05,0.46-0.08,1.7-0.08,3.73v7.22
			c0,2.06-0.09,3.42-0.28,4.08c-0.29,1.03-0.74,1.77-1.35,2.26c-0.81,0.63-1.84,0.95-3.12,0.95c-1.64,0-2.93-0.55-3.84-1.66
			c-0.91-1.11-1.37-2.33-1.37-3.67c0-0.69,0.12-1.24,0.37-1.64c0.25-0.4,0.55-0.6,0.94-0.6c0.4,0,0.71,0.18,0.95,0.58
			c0.25,0.38,0.37,0.94,0.37,1.64l-0.03,1.35c0,0.68,0.2,1.27,0.6,1.81c0.38,0.52,0.91,0.78,1.55,0.78c0.86,0,1.52-0.4,1.97-1.18
			c0.45-0.78,0.68-2.24,0.68-4.36v-0.83c-2.44-1.32-4.19-2.46-5.25-3.38c-1.06-0.92-1.8-1.92-2.21-2.96
			c-0.31-0.75-0.48-1.66-0.48-2.69c0-1.64,0.32-2.96,0.95-3.96c0.64-1.01,1.44-1.52,2.44-1.52c0.63,0,1.23,0.18,1.8,0.58
			c0.37,0.26,1.29,1.23,2.75,2.92C42.19,38.85,42.34,37.95,42.65,37.42z M39.07,39.31c-0.58,0-1.09,0.37-1.54,1.11
			c-0.45,0.74-0.68,1.66-0.66,2.78c0,0.88,0.18,1.69,0.54,2.44c0.35,0.74,0.94,1.46,1.77,2.13c0.46,0.38,1.47,1.04,3.04,1.97v-8.09
			C40.9,40.08,39.86,39.31,39.07,39.31z"/>
		<path class="st3" d="M47.52,57.45c0.52-0.12,0.86-0.26,1.04-0.4c0.32-0.25,0.58-0.55,0.8-0.92c0.21-0.37,0.43-0.97,0.64-1.8
			l5.07-17.95h0.64l5.07,18.23c0.29,1.07,0.61,1.86,0.98,2.32c0.2,0.26,0.58,0.41,1.12,0.49v0.86l-4.65,0.02v-0.86
			c0.54,0,0.89-0.05,1.07-0.12c0.17-0.09,0.32-0.25,0.43-0.48c0.08-0.14,0.12-0.32,0.12-0.54c0-0.45-0.12-1.11-0.35-1.97
			l-3.33-12.18l-3.3,11.75c-0.21,0.74-0.32,1.38-0.32,1.92c0,0.49,0.11,0.89,0.32,1.18c0.21,0.29,0.52,0.45,0.92,0.45h0.43v0.86
			l-6.71,0.02C47.52,58.32,47.52,57.45,47.52,57.45z"/>
		<path class="st3" d="M76.42,50.25c0,2.63-0.51,4.73-1.54,6.3c-1.03,1.57-2.33,2.36-3.93,2.36c-1.89,0-3.46-1.01-4.71-3.04
			c-1.24-2.03-1.87-4.87-1.87-8.51c0-3.36,0.6-6.04,1.83-8.02c1.21-2,2.69-2.98,4.39-2.99c1.58,0,2.89,0.86,3.93,2.61
			c1.04,1.74,1.69,3.67,1.9,5.79l-0.48,0.46c-0.46-1.86-1.04-3.16-1.74-3.93c-0.69-0.77-1.5-1.15-2.44-1.14
			c-1.4,0-2.63,0.91-3.65,2.7c-1.03,1.8-1.55,4.27-1.54,7.43L76.42,50.25z M67.77,55.77c0.68,1,1.44,1.49,2.3,1.49
			c0.55,0,1.09-0.25,1.61-0.74c0.51-0.49,0.91-1.18,1.15-2.04c0.17-0.55,0.28-1.52,0.32-2.87l-6.59,0.02
			C66.7,53.39,67.08,54.78,67.77,55.77z"/>
		<path class="st3" d="M82.53,69.98l-4.25-2.6l0.26-0.81c0.41,0.25,0.75,0.37,1.03,0.37c0.25,0,0.45-0.11,0.61-0.31
			c0.15-0.2,0.28-0.58,0.35-1.12c0.06-0.55,0.11-2.03,0.11-4.42l-0.02-19.3c0-1.32-0.06-2.2-0.2-2.67c-0.14-0.46-0.32-0.8-0.55-1
			c-0.25-0.2-0.69-0.29-1.34-0.29v-0.83l6.99-0.02v0.83c-0.74,0-1.24,0.11-1.5,0.34c-0.28,0.23-0.48,0.55-0.6,0.98
			c-0.14,0.43-0.18,1.32-0.18,2.64l0.02,28.19h-0.72V69.98z"/>
		<path class="st3" d="M90.78,57.48c-1.06-0.92-1.92-2.33-2.56-4.27c-0.64-1.92-0.98-3.87-0.98-5.8c0-2.67,0.54-5.08,1.6-7.25
			c1.26-2.55,2.96-3.84,5.11-3.84c1.32,0,2.52,0.49,3.58,1.47c1.07,0.98,1.92,2.46,2.53,4.41c0.61,1.95,0.92,3.87,0.92,5.77
			c0,2.7-0.55,5.11-1.66,7.2c-1.31,2.44-3.04,3.67-5.19,3.67C92.96,58.85,91.84,58.38,90.78,57.48z M96.47,55.11
			c1.09-2.17,1.63-5.14,1.63-8.92c0-3.01-0.32-5.14-0.98-6.37s-1.47-1.86-2.49-1.86c-1.35,0-2.44,1.12-3.26,3.36
			c-0.83,2.24-1.23,4.91-1.23,8.02c0,1.92,0.17,3.49,0.52,4.71c0.34,1.21,0.8,2.07,1.35,2.56s1.11,0.74,1.66,0.74
			C94.8,57.34,95.74,56.59,96.47,55.11z"/>
		<path class="st3" d="M107.25,58.83h-0.68l-4.3-2.6l0.23-0.84c0.4,0.23,0.75,0.35,1.04,0.35c0.28,0,0.49-0.11,0.64-0.31
			c0.15-0.2,0.28-0.58,0.35-1.14c0.08-0.55,0.11-2.1,0.11-4.67v-7.89c0-1.55-0.12-2.6-0.38-3.15c-0.26-0.55-0.75-0.83-1.47-0.81
			h-0.31v-0.83l7.05-0.02v0.83c-0.78,0-1.29,0.11-1.55,0.31c-0.26,0.21-0.46,0.54-0.6,0.98c-0.11,0.34-0.17,1.23-0.17,2.67
			l0.02,11.21c1.23,2.01,2.46,3.01,3.69,3.01c0.8,0,1.37-0.45,1.7-1.31c0.34-0.88,0.51-2.27,0.51-4.21v-8.71
			c0-1.23-0.02-1.95-0.06-2.18c-0.11-0.58-0.29-1.03-0.55-1.34c-0.26-0.31-0.74-0.45-1.4-0.45h-0.29v-0.83l7.05-0.02v0.83
			c-0.69,0-1.15,0.11-1.41,0.32c-0.26,0.21-0.45,0.52-0.55,0.91c-0.15,0.48-0.21,1.4-0.21,2.73v9.08c0,1.92-0.11,3.35-0.34,4.27
			c-0.32,1.34-0.78,2.29-1.34,2.87c-0.55,0.58-1.23,0.88-2.01,0.88c-1.52,0-3.1-1.49-4.78-4.5L107.25,58.83z"/>
	</g>
	<g>
		<g>
			<path d="M85.69,64.74v-1.47h2.56v1.47H85.69z M86.42,67.69v-6.94h0.57v6.94H86.42z M87.63,71.79c-0.43,0-0.74-0.26-0.94-0.78
				c-0.18-0.52-0.29-1.37-0.29-2.52v-1.41h0.57v1.34c0,0.66,0.06,1.15,0.17,1.44c0.11,0.31,0.29,0.45,0.54,0.45
				c0.09,0,0.18-0.02,0.28-0.05s0.21-0.06,0.34-0.12l0.06,1.47c-0.12,0.06-0.25,0.11-0.37,0.14C87.86,71.78,87.77,71.79,87.63,71.79
				z"/>
			<path d="M88.93,71.64v-1.47h1.89v1.47H88.93z M89.04,64.74v-1.47h0.95l0.05,1.47H89.04z M89.56,71.64v-8.37h0.46l0.11,2.4v5.96
				h-0.57V71.64z M90.13,68.03l-0.17-2.63h0.21c0.03-1.54,0.29-2.3,0.78-2.3c0.29,0,0.51,0.25,0.64,0.74c0.14,0.49,0.2,1.29,0.2,2.4
				h-0.57c0-0.61-0.03-1.04-0.09-1.32c-0.06-0.28-0.15-0.4-0.29-0.4c-0.25,0-0.41,0.31-0.54,0.91
				C90.19,66.02,90.13,66.91,90.13,68.03z"/>
			<path d="M93.13,71.79c-0.29,0-0.52-0.21-0.69-0.63c-0.17-0.41-0.25-1.01-0.25-1.78c0-0.89,0.11-1.57,0.34-2.04
				c0.23-0.48,0.54-0.71,0.95-0.71c0.17,0,0.32,0.03,0.45,0.09c0.14,0.06,0.25,0.15,0.35,0.28l-0.12,1.14
				c-0.12-0.08-0.23-0.12-0.35-0.14c-0.11-0.02-0.23-0.02-0.35-0.02c-0.49,0-0.74,0.45-0.74,1.32c0,0.37,0.05,0.64,0.12,0.84
				c0.08,0.2,0.2,0.31,0.35,0.31c0.18,0,0.32-0.09,0.45-0.26c0.12-0.17,0.21-0.41,0.26-0.69c0.06-0.28,0.09-0.57,0.09-0.86v-0.92
				l0.17,2.15h-0.23l0.09-0.26c0,0.49-0.03,0.89-0.11,1.21c-0.08,0.32-0.18,0.57-0.32,0.72C93.45,71.7,93.31,71.79,93.13,71.79z
				 M94.13,71.71l-0.03-2.47l-0.08-0.69v-2.17c0-0.55-0.06-0.97-0.2-1.23c-0.14-0.26-0.34-0.4-0.6-0.41l-0.68-0.06l0.06-1.49
				l0.57,0.03c0.48,0.02,0.81,0.32,1.04,0.89c0.23,0.58,0.34,1.41,0.34,2.52v3.49l0.48,0.17v1.34L94.13,71.71z"/>
			<path d="M96.38,71.64l-1.01-8.37h0.6l0.77,6.94h0.05l0.77-6.94h0.6l-1.01,8.37H96.38z"/>
			<path d="M100.21,71.79c-0.49,0-0.86-0.37-1.12-1.12c-0.26-0.75-0.4-1.83-0.4-3.22c0-1.37,0.11-2.43,0.34-3.19
				s0.54-1.14,0.95-1.14c0.38,0,0.68,0.34,0.89,1.03c0.21,0.69,0.32,1.67,0.32,2.98c0,0.38,0,0.74-0.02,1.07h-2v-1.27h1.49
				c0-0.75-0.06-1.34-0.18-1.74c-0.12-0.4-0.29-0.6-0.51-0.6c-0.25,0-0.43,0.25-0.57,0.72c-0.14,0.49-0.2,1.17-0.2,2.06
				c0,0.97,0.09,1.7,0.28,2.21c0.18,0.51,0.45,0.75,0.78,0.75c0.12,0,0.23-0.02,0.35-0.06c0.11-0.05,0.23-0.09,0.35-0.17l0.06,1.47
				c-0.17,0.09-0.32,0.15-0.46,0.18C100.44,71.78,100.31,71.79,100.21,71.79z"/>
			<path d="M101.83,61.27V59.8h0.89v1.47H101.83z M103.6,71.79c-0.32,0-0.57-0.26-0.71-0.78c-0.15-0.52-0.21-1.37-0.21-2.52v-8.68
				h0.57v8.6c0,0.45,0.02,0.8,0.05,1.07c0.03,0.28,0.09,0.49,0.17,0.61c0.08,0.14,0.2,0.2,0.37,0.2c0.15,0,0.34-0.11,0.57-0.31
				l0.06,1.47c-0.14,0.12-0.28,0.2-0.41,0.26C103.91,71.79,103.75,71.79,103.6,71.79z"/>
			<path d="M108.18,64.74v-1.47h2.56v1.47H108.18z M108.9,67.69v-6.94h0.57v6.94H108.9z M110.11,71.79c-0.43,0-0.74-0.26-0.94-0.78
				c-0.18-0.52-0.29-1.37-0.29-2.52v-1.41h0.57v1.34c0,0.66,0.06,1.15,0.17,1.44c0.11,0.31,0.29,0.45,0.54,0.45
				c0.09,0,0.18-0.02,0.28-0.05s0.21-0.06,0.34-0.12l0.06,1.47c-0.12,0.06-0.25,0.11-0.37,0.14
				C110.34,71.78,110.25,71.79,110.11,71.79z"/>
			<path d="M112.81,71.79c-0.4,0-0.71-0.38-0.92-1.14s-0.32-1.83-0.32-3.21c0-1.38,0.11-2.46,0.32-3.21s0.52-1.14,0.92-1.14
				s0.71,0.38,0.92,1.14s0.32,1.83,0.32,3.21c0,1.38-0.11,2.44-0.32,3.21C113.5,71.41,113.2,71.79,112.81,71.79z M112.81,70.29
				c0.21,0,0.37-0.25,0.48-0.74c0.11-0.49,0.17-1.2,0.17-2.1c0-0.91-0.06-1.61-0.17-2.1s-0.28-0.74-0.48-0.74
				c-0.21,0-0.37,0.25-0.48,0.74c-0.11,0.49-0.17,1.2-0.17,2.1c0,0.91,0.06,1.6,0.17,2.1C112.45,70.04,112.6,70.29,112.81,70.29z"/>
			<path d="M119.48,71.79c-0.49,0-0.86-0.37-1.12-1.12c-0.26-0.75-0.4-1.83-0.4-3.22c0-1.37,0.11-2.43,0.34-3.19
				c0.23-0.77,0.54-1.14,0.95-1.14c0.38,0,0.68,0.34,0.89,1.03c0.21,0.69,0.32,1.67,0.32,2.98c0,0.38,0,0.74-0.02,1.07h-2v-1.27
				h1.49c0-0.75-0.06-1.34-0.18-1.74c-0.12-0.4-0.29-0.6-0.51-0.6c-0.25,0-0.43,0.25-0.57,0.72c-0.14,0.49-0.2,1.17-0.2,2.06
				c0,0.97,0.09,1.7,0.28,2.21c0.18,0.51,0.45,0.75,0.78,0.75c0.12,0,0.23-0.02,0.35-0.06c0.11-0.05,0.23-0.09,0.35-0.17l0.06,1.47
				c-0.17,0.09-0.32,0.15-0.46,0.18C119.71,71.78,119.59,71.79,119.48,71.79z"/>
			<path d="M123.12,71.64l-0.86-3.61l-1.14-4.75h0.64l0.88,3.76l1.14,4.61h-0.66V71.64z M121.12,71.64l1.14-4.61l0.88-3.76h0.64
				l-1.17,4.75l-0.83,3.61h-0.66V71.64z"/>
			<path d="M124.5,75.26V63.27h0.51l0.06,1.77v10.23H124.5z M125.87,71.79c-0.21,0-0.4-0.15-0.52-0.45
				c-0.14-0.29-0.21-0.71-0.23-1.23h-0.25l0.18-2.38c0,0.86,0.06,1.52,0.17,1.97s0.29,0.68,0.51,0.68c0.23,0,0.4-0.25,0.52-0.72
				s0.18-1.18,0.18-2.12c0-0.98-0.06-1.74-0.18-2.24c-0.12-0.51-0.29-0.75-0.52-0.75c-0.21,0-0.38,0.23-0.51,0.68
				c-0.12,0.45-0.17,1.11-0.17,1.97l-0.18-2.38h0.21c0.03-0.52,0.11-0.94,0.25-1.23c0.14-0.29,0.32-0.45,0.54-0.45
				c0.37,0,0.66,0.37,0.84,1.12c0.18,0.75,0.29,1.84,0.29,3.3c0,1.4-0.09,2.46-0.29,3.18C126.53,71.42,126.24,71.79,125.87,71.79z"
				/>
			<path d="M127.53,61.27V59.8h0.89v1.47H127.53z M129.29,71.79c-0.32,0-0.57-0.26-0.71-0.78c-0.15-0.52-0.21-1.37-0.21-2.52v-8.68
				h0.57v8.6c0,0.45,0.02,0.8,0.05,1.07c0.03,0.28,0.09,0.49,0.17,0.61c0.08,0.14,0.2,0.2,0.37,0.2c0.15,0,0.34-0.11,0.57-0.31
				l0.06,1.47c-0.14,0.12-0.28,0.2-0.41,0.26C129.6,71.79,129.44,71.79,129.29,71.79z"/>
			<path d="M132.07,71.79c-0.4,0-0.71-0.38-0.92-1.14c-0.21-0.75-0.32-1.83-0.32-3.21c0-1.38,0.11-2.46,0.32-3.21
				c0.21-0.75,0.52-1.14,0.92-1.14c0.4,0,0.71,0.38,0.92,1.14c0.21,0.75,0.32,1.83,0.32,3.21c0,1.38-0.11,2.44-0.32,3.21
				C132.78,71.41,132.47,71.79,132.07,71.79z M132.07,70.29c0.21,0,0.37-0.25,0.48-0.74c0.11-0.49,0.17-1.2,0.17-2.1
				c0-0.91-0.06-1.61-0.17-2.1c-0.11-0.49-0.28-0.74-0.48-0.74c-0.21,0-0.37,0.25-0.48,0.74c-0.11,0.49-0.17,1.2-0.17,2.1
				c0,0.91,0.06,1.6,0.17,2.1C131.7,70.04,131.87,70.29,132.07,70.29z"/>
			<path d="M133.9,71.64v-1.47h1.89v1.47H133.9z M134.01,64.74v-1.47h0.95l0.05,1.47H134.01z M134.53,71.64v-8.37h0.46l0.11,2.4
				v5.96h-0.57V71.64z M135.1,68.03l-0.17-2.63h0.21c0.03-1.54,0.29-2.3,0.78-2.3c0.29,0,0.51,0.25,0.64,0.74
				c0.14,0.49,0.2,1.29,0.2,2.4h-0.57c0-0.61-0.03-1.04-0.09-1.32s-0.15-0.4-0.29-0.4c-0.25,0-0.41,0.31-0.54,0.91
				C135.16,66.02,135.1,66.91,135.1,68.03z"/>
			<path d="M138.74,71.79c-0.49,0-0.86-0.37-1.12-1.12c-0.26-0.75-0.4-1.83-0.4-3.22c0-1.37,0.11-2.43,0.34-3.19
				s0.54-1.14,0.95-1.14c0.38,0,0.68,0.34,0.89,1.03c0.21,0.69,0.32,1.67,0.32,2.98c0,0.38,0,0.74-0.02,1.07h-2v-1.27h1.49
				c0-0.75-0.06-1.34-0.18-1.74c-0.12-0.4-0.29-0.6-0.51-0.6c-0.25,0-0.43,0.25-0.57,0.72c-0.14,0.49-0.2,1.17-0.2,2.06
				c0,0.97,0.09,1.7,0.28,2.21c0.18,0.51,0.45,0.75,0.78,0.75c0.12,0,0.23-0.02,0.35-0.06c0.11-0.05,0.23-0.09,0.35-0.17l0.06,1.47
				c-0.17,0.09-0.32,0.15-0.46,0.18C138.97,71.78,138.84,71.79,138.74,71.79z"/>
		</g>
	</g>
	<line class="st4" x1="87.25" y1="79.19" x2="292.07" y2="-11.2"/>
	<line class="st4" x1="141.73" y1="74.75" x2="87.25" y2="75.78"/>
</g>
</svg>
