<?xml version="1.0" encoding="utf-8"?>
<!-- Generator: Adobe Illustrator 27.9.0, SVG Export Plug-In . SVG Version: 6.00 Build 0)  -->
<svg version="1.1" id="Layer_1" xmlns="http://www.w3.org/2000/svg" xmlns:xlink="http://www.w3.org/1999/xlink" x="0px" y="0px"
	 viewBox="0 0 216 144" style="enable-background:new 0 0 216 144;" xml:space="preserve">
<style type="text/css">
	.st0{font-family:'TimesNewRomanPSMT';}
	.st1{font-size:29.5354px;}
	.st2{fill:#FFF200;}
	.st3{fill:#92278F;}
	.st4{fill:none;}
</style>
<g>
	<text transform="matrix(0.7024 1.203700e-03 -7.009227e-04 1 60.8144 68.627)" class="st0 st1">Travelon</text>
	<g>
		<path class="st2" d="M61.59,89.64l-0.17-4.81l0.39,0c0.05,0.93,0.2,1.66,0.45,2.21c0.25,0.54,0.55,0.91,0.9,1.1
			c0.27,0.14,0.73,0.21,1.37,0.21l1.65,0l-0.01-15.66c0-1.15-0.08-1.88-0.22-2.21c-0.24-0.52-0.66-0.78-1.24-0.78l-0.49,0v-0.56
			l5.82-0.01v0.56h-0.48c-0.53,0-0.93,0.21-1.18,0.64c-0.18,0.31-0.27,1.1-0.27,2.36l0.01,15.66l1.93,0c0.57,0,1.02-0.14,1.37-0.42
			c0.35-0.28,0.63-0.71,0.83-1.29c0.13-0.36,0.23-0.97,0.3-1.81l0.38,0l-0.15,4.81L61.59,89.64z"/>
		<path class="st2" d="M75.68,83.38l-2.81-1.69l0.1-0.54c0.26,0.15,0.5,0.23,0.71,0.23c0.18,0,0.32-0.07,0.44-0.21
			s0.2-0.37,0.24-0.67c0.04-0.31,0.07-1.27,0.06-2.88l0-5.36c0-0.81-0.02-1.29-0.05-1.47c-0.07-0.35-0.19-0.61-0.35-0.77
			c-0.23-0.22-0.58-0.33-1.05-0.33v-0.54l4.75-0.01v0.54c-0.42,0-0.74,0.09-0.96,0.27c-0.22,0.18-0.38,0.41-0.47,0.68
			c-0.13,0.39-0.19,0.97-0.19,1.74l0,6.63c0.32,0.95,0.64,1.63,0.94,2.04c0.14,0.2,0.27,0.3,0.39,0.3c0.14,0,0.36-0.17,0.65-0.52
			c0.29-0.35,0.56-0.52,0.8-0.52c0.24,0,0.45,0.14,0.63,0.41c0.18,0.27,0.26,0.6,0.26,1c0,0.44-0.12,0.83-0.36,1.17
			c-0.24,0.34-0.55,0.51-0.92,0.51c-0.82,0-1.61-1.04-2.39-3.11l0,3.11L75.68,83.38z"/>
		<path class="st2" d="M85.85,69.35c0.2-0.34,0.46-0.51,0.79-0.51c0.69,0,1.41,0.75,2.17,2.26l0,0.85c-0.41-0.6-0.68-0.97-0.82-1.1
			c-0.08-0.07-0.18-0.11-0.28-0.11c-0.1,0-0.19,0.05-0.27,0.15c-0.08,0.1-0.13,0.3-0.17,0.6c-0.03,0.3-0.05,1.11-0.05,2.43l0,4.7
			c0,1.34-0.06,2.23-0.18,2.66c-0.19,0.67-0.48,1.15-0.88,1.47c-0.53,0.41-1.2,0.62-2.03,0.62c-1.07,0-1.91-0.36-2.5-1.08
			c-0.59-0.72-0.89-1.52-0.89-2.39c0-0.45,0.08-0.81,0.24-1.07c0.16-0.26,0.36-0.39,0.61-0.39c0.26,0,0.46,0.12,0.62,0.38
			c0.16,0.25,0.24,0.61,0.24,1.07l-0.02,0.88c0,0.44,0.13,0.83,0.39,1.18c0.25,0.34,0.59,0.51,1.01,0.51c0.56,0,0.99-0.26,1.28-0.77
			c0.29-0.51,0.44-1.46,0.44-2.84v-0.54c-1.59-0.86-2.73-1.6-3.42-2.2c-0.69-0.6-1.17-1.25-1.44-1.93c-0.2-0.49-0.31-1.08-0.31-1.75
			c0-1.07,0.21-1.93,0.62-2.58c0.42-0.66,0.94-0.99,1.59-0.99c0.41,0,0.8,0.12,1.17,0.38c0.24,0.17,0.84,0.8,1.79,1.9
			C85.55,70.28,85.65,69.69,85.85,69.35z M83.52,70.58c-0.38,0-0.71,0.24-1,0.72c-0.29,0.48-0.44,1.08-0.43,1.81
			c0,0.57,0.12,1.1,0.35,1.59c0.23,0.48,0.61,0.95,1.15,1.39c0.3,0.25,0.96,0.68,1.98,1.28l0-5.27
			C84.71,71.08,84.03,70.58,83.52,70.58z"/>
		<path class="st2" d="M89.02,82.39c0.34-0.08,0.56-0.17,0.68-0.26c0.21-0.16,0.38-0.36,0.52-0.6c0.14-0.24,0.28-0.63,0.42-1.17
			l3.3-11.69l0.42,0l3.3,11.87c0.19,0.7,0.4,1.21,0.64,1.51c0.13,0.17,0.38,0.27,0.73,0.32v0.56L96,82.93v-0.56
			c0.35,0,0.58-0.03,0.7-0.08c0.11-0.06,0.21-0.16,0.28-0.31c0.05-0.09,0.08-0.21,0.08-0.35c0-0.29-0.08-0.72-0.23-1.28l-2.17-7.93
			l-2.15,7.65c-0.14,0.48-0.21,0.9-0.21,1.25c0,0.32,0.07,0.58,0.21,0.77c0.14,0.19,0.34,0.29,0.6,0.29h0.28v0.56l-4.37,0.01V82.39z
			"/>
		<path class="st2" d="M107.84,77.7c0,1.71-0.33,3.08-1,4.1s-1.52,1.54-2.56,1.54c-1.23,0-2.25-0.66-3.07-1.98
			c-0.81-1.32-1.22-3.17-1.22-5.54c0-2.19,0.39-3.93,1.19-5.22c0.79-1.3,1.75-1.94,2.86-1.95c1.03,0,1.88,0.56,2.56,1.7
			c0.68,1.13,1.1,2.39,1.24,3.77l-0.31,0.3c-0.3-1.21-0.68-2.06-1.13-2.56c-0.45-0.5-0.98-0.75-1.59-0.74
			c-0.91,0-1.71,0.59-2.38,1.76c-0.67,1.17-1.01,2.78-1,4.84L107.84,77.7z M102.21,81.3c0.44,0.65,0.94,0.97,1.5,0.97
			c0.36,0,0.71-0.16,1.05-0.48c0.33-0.32,0.59-0.77,0.75-1.33c0.11-0.36,0.18-0.99,0.21-1.87l-4.29,0.01
			C101.51,79.74,101.76,80.65,102.21,81.3z"/>
		<path class="st2" d="M111.82,90.55l-2.77-1.69l0.17-0.53c0.27,0.16,0.49,0.24,0.67,0.24c0.16,0,0.29-0.07,0.4-0.2
			c0.1-0.13,0.18-0.38,0.23-0.73c0.04-0.36,0.07-1.32,0.07-2.88l-0.01-12.57c0-0.86-0.04-1.43-0.13-1.74
			c-0.09-0.3-0.21-0.52-0.36-0.65c-0.16-0.13-0.45-0.19-0.87-0.19l0-0.54l4.55-0.01l0,0.54c-0.48,0-0.81,0.07-0.98,0.22
			c-0.18,0.15-0.31,0.36-0.39,0.64c-0.09,0.28-0.12,0.86-0.12,1.72l0.01,18.36H111.82z"/>
		<path class="st2" d="M117.19,82.4c-0.69-0.6-1.25-1.52-1.67-2.78c-0.42-1.25-0.64-2.52-0.64-3.78c0-1.74,0.35-3.31,1.04-4.72
			c0.82-1.66,1.93-2.5,3.33-2.5c0.86,0,1.64,0.32,2.33,0.96c0.7,0.64,1.25,1.6,1.65,2.87c0.4,1.27,0.6,2.52,0.6,3.76
			c0,1.76-0.36,3.33-1.08,4.69c-0.85,1.59-1.98,2.39-3.38,2.39C118.61,83.3,117.88,83,117.19,82.4z M120.9,80.86
			c0.71-1.41,1.06-3.35,1.06-5.81c0-1.96-0.21-3.35-0.64-4.15c-0.43-0.8-0.96-1.21-1.62-1.21c-0.88,0-1.59,0.73-2.12,2.19
			c-0.54,1.46-0.8,3.2-0.8,5.22c0,1.25,0.11,2.27,0.34,3.07c0.22,0.79,0.52,1.35,0.88,1.67c0.36,0.32,0.72,0.48,1.08,0.48
			C119.81,82.32,120.42,81.83,120.9,80.86z"/>
		<path class="st2" d="M127.92,83.28l-0.44,0l-2.8-1.69l0.15-0.55c0.26,0.15,0.49,0.23,0.68,0.23c0.18,0,0.32-0.07,0.42-0.2
			c0.1-0.13,0.18-0.38,0.23-0.74c0.05-0.36,0.07-1.37,0.07-3.04l0-5.14c0-1.01-0.08-1.69-0.25-2.05s-0.49-0.54-0.96-0.53h-0.2
			l0-0.54l4.59-0.01l0,0.54c-0.51,0-0.84,0.07-1.01,0.2c-0.17,0.14-0.3,0.35-0.39,0.64c-0.07,0.22-0.11,0.8-0.11,1.74l0.01,7.3
			c0.8,1.31,1.6,1.96,2.4,1.96c0.52,0,0.89-0.29,1.11-0.85c0.22-0.57,0.33-1.48,0.33-2.74l0-5.67c0-0.8-0.01-1.27-0.04-1.42
			c-0.07-0.38-0.19-0.67-0.36-0.87c-0.17-0.2-0.48-0.29-0.91-0.29l-0.19,0l0-0.54l4.59-0.01l0,0.54c-0.45,0-0.75,0.07-0.92,0.21
			c-0.17,0.14-0.29,0.34-0.36,0.59c-0.1,0.31-0.14,0.91-0.14,1.78l0,5.91c0,1.25-0.07,2.18-0.22,2.78
			c-0.21,0.87-0.51,1.49-0.87,1.87c-0.36,0.38-0.8,0.57-1.31,0.57c-0.99,0-2.02-0.97-3.11-2.93L127.92,83.28z"/>
	</g>
	<g>
		<path class="st3" d="M61.59,90.72l-0.17-4.81l0.39,0c0.05,0.93,0.2,1.66,0.45,2.21c0.25,0.54,0.55,0.91,0.9,1.1
			c0.27,0.14,0.73,0.21,1.37,0.21l1.65,0l-0.01-15.66c0-1.15-0.08-1.88-0.22-2.21c-0.24-0.52-0.66-0.78-1.24-0.78l-0.49,0v-0.56
			l5.82-0.01v0.56h-0.48c-0.53,0-0.93,0.21-1.18,0.64c-0.18,0.31-0.27,1.1-0.27,2.36l0.01,15.66l1.93,0c0.57,0,1.02-0.14,1.37-0.42
			c0.35-0.28,0.63-0.71,0.83-1.29c0.13-0.36,0.23-0.97,0.3-1.81l0.38,0L72.8,90.7L61.59,90.72z"/>
		<path class="st3" d="M75.68,84.45l-2.81-1.69l0.1-0.54c0.26,0.15,0.5,0.23,0.71,0.23c0.18,0,0.32-0.07,0.44-0.21
			s0.2-0.37,0.24-0.67c0.04-0.31,0.07-1.27,0.06-2.88l0-5.36c0-0.81-0.02-1.29-0.05-1.47c-0.07-0.35-0.19-0.61-0.35-0.77
			c-0.23-0.22-0.58-0.33-1.05-0.33V70.2l4.75-0.01v0.54c-0.42,0-0.74,0.09-0.96,0.27c-0.22,0.18-0.38,0.41-0.47,0.68
			c-0.13,0.39-0.19,0.97-0.19,1.74l0,6.63c0.32,0.95,0.64,1.63,0.94,2.04c0.14,0.2,0.27,0.3,0.39,0.3c0.14,0,0.36-0.17,0.65-0.52
			c0.29-0.35,0.56-0.52,0.8-0.52c0.24,0,0.45,0.14,0.63,0.41c0.18,0.27,0.26,0.6,0.26,1c0,0.44-0.12,0.83-0.36,1.17
			c-0.24,0.34-0.55,0.51-0.92,0.51c-0.82,0-1.61-1.04-2.39-3.11l0,3.11L75.68,84.45z"/>
		<path class="st3" d="M85.85,70.42c0.2-0.34,0.46-0.51,0.79-0.51c0.69,0,1.41,0.75,2.17,2.26l0,0.85c-0.41-0.6-0.68-0.97-0.82-1.1
			c-0.08-0.07-0.18-0.11-0.28-0.11c-0.1,0-0.19,0.05-0.27,0.15c-0.08,0.1-0.13,0.3-0.17,0.6c-0.03,0.3-0.05,1.11-0.05,2.43l0,4.7
			c0,1.34-0.06,2.23-0.18,2.66c-0.19,0.67-0.48,1.15-0.88,1.47c-0.53,0.41-1.2,0.62-2.03,0.62c-1.07,0-1.91-0.36-2.5-1.08
			c-0.59-0.72-0.89-1.52-0.89-2.39c0-0.45,0.08-0.81,0.24-1.07c0.16-0.26,0.36-0.39,0.61-0.39c0.26,0,0.46,0.12,0.62,0.38
			c0.16,0.25,0.24,0.61,0.24,1.07l-0.02,0.88c0,0.44,0.13,0.83,0.39,1.18c0.25,0.34,0.59,0.51,1.01,0.51c0.56,0,0.99-0.26,1.28-0.77
			c0.29-0.51,0.44-1.46,0.44-2.84v-0.54c-1.59-0.86-2.73-1.6-3.42-2.2c-0.69-0.6-1.17-1.25-1.44-1.93c-0.2-0.49-0.31-1.08-0.31-1.75
			c0-1.07,0.21-1.93,0.62-2.58c0.42-0.66,0.94-0.99,1.59-0.99c0.41,0,0.8,0.12,1.17,0.38c0.24,0.17,0.84,0.8,1.79,1.9
			C85.55,71.35,85.65,70.76,85.85,70.42z M83.52,71.65c-0.38,0-0.71,0.24-1,0.72c-0.29,0.48-0.44,1.08-0.43,1.81
			c0,0.57,0.12,1.1,0.35,1.59c0.23,0.48,0.61,0.95,1.15,1.39c0.3,0.25,0.96,0.68,1.98,1.28l0-5.27
			C84.71,72.15,84.03,71.65,83.52,71.65z"/>
		<path class="st3" d="M89.02,83.46c0.34-0.08,0.56-0.17,0.68-0.26c0.21-0.16,0.38-0.36,0.52-0.6c0.14-0.24,0.28-0.63,0.42-1.17
			l3.3-11.69l0.42,0l3.3,11.87c0.19,0.7,0.4,1.21,0.64,1.51c0.13,0.17,0.38,0.27,0.73,0.32V84L96,84.01v-0.56
			c0.35,0,0.58-0.03,0.7-0.08c0.11-0.06,0.21-0.16,0.28-0.31c0.05-0.09,0.08-0.21,0.08-0.35c0-0.29-0.08-0.72-0.23-1.28l-2.17-7.93
			l-2.15,7.65c-0.14,0.48-0.21,0.9-0.21,1.25c0,0.32,0.07,0.58,0.21,0.77c0.14,0.19,0.34,0.29,0.6,0.29h0.28v0.56l-4.37,0.01V83.46z
			"/>
		<path class="st3" d="M107.84,78.77c0,1.71-0.33,3.08-1,4.1c-0.67,1.02-1.52,1.54-2.56,1.54c-1.23,0-2.25-0.66-3.07-1.98
			c-0.81-1.32-1.22-3.17-1.22-5.54c0-2.19,0.39-3.93,1.19-5.22c0.79-1.3,1.75-1.94,2.86-1.95c1.03,0,1.88,0.56,2.56,1.7
			c0.68,1.13,1.1,2.39,1.24,3.77l-0.31,0.3c-0.3-1.21-0.68-2.06-1.13-2.56c-0.45-0.5-0.98-0.75-1.59-0.74
			c-0.91,0-1.71,0.59-2.38,1.76c-0.67,1.17-1.01,2.78-1,4.84L107.84,78.77z M102.21,82.37c0.44,0.65,0.94,0.97,1.5,0.97
			c0.36,0,0.71-0.16,1.05-0.48c0.33-0.32,0.59-0.77,0.75-1.33c0.11-0.36,0.18-0.99,0.21-1.87l-4.29,0.01
			C101.51,80.82,101.76,81.72,102.21,82.37z"/>
		<path class="st3" d="M111.82,91.62l-2.77-1.69l0.17-0.53c0.27,0.16,0.49,0.24,0.67,0.24c0.16,0,0.29-0.07,0.4-0.2
			c0.1-0.13,0.18-0.38,0.23-0.73c0.04-0.36,0.07-1.32,0.07-2.88l-0.01-12.57c0-0.86-0.04-1.43-0.13-1.74
			c-0.09-0.3-0.21-0.52-0.36-0.65c-0.16-0.13-0.45-0.19-0.87-0.19l0-0.54l4.55-0.01l0,0.54c-0.48,0-0.81,0.07-0.98,0.22
			c-0.18,0.15-0.31,0.36-0.39,0.64c-0.09,0.28-0.12,0.86-0.12,1.72l0.01,18.36H111.82z"/>
		<path class="st3" d="M117.19,83.48c-0.69-0.6-1.25-1.52-1.67-2.78c-0.42-1.25-0.64-2.52-0.64-3.78c0-1.74,0.35-3.31,1.04-4.72
			c0.82-1.66,1.93-2.5,3.33-2.5c0.86,0,1.64,0.32,2.33,0.96c0.7,0.64,1.25,1.6,1.65,2.87c0.4,1.27,0.6,2.52,0.6,3.76
			c0,1.76-0.36,3.33-1.08,4.69c-0.85,1.59-1.98,2.39-3.38,2.39C118.61,84.37,117.88,84.07,117.19,83.48z M120.9,81.94
			c0.71-1.41,1.06-3.35,1.06-5.81c0-1.96-0.21-3.35-0.64-4.15c-0.43-0.8-0.96-1.21-1.62-1.21c-0.88,0-1.59,0.73-2.12,2.19
			c-0.54,1.46-0.8,3.2-0.8,5.22c0,1.25,0.11,2.27,0.34,3.07c0.22,0.79,0.52,1.35,0.88,1.67c0.36,0.32,0.72,0.48,1.08,0.48
			C119.81,83.39,120.42,82.9,120.9,81.94z"/>
		<path class="st3" d="M127.92,84.36l-0.44,0l-2.8-1.69l0.15-0.55c0.26,0.15,0.49,0.23,0.68,0.23c0.18,0,0.32-0.07,0.42-0.2
			c0.1-0.13,0.18-0.38,0.23-0.74c0.05-0.36,0.07-1.37,0.07-3.04l0-5.14c0-1.01-0.08-1.69-0.25-2.05c-0.17-0.36-0.49-0.54-0.96-0.53
			h-0.2l0-0.54l4.59-0.01l0,0.54c-0.51,0-0.84,0.07-1.01,0.2c-0.17,0.14-0.3,0.35-0.39,0.64c-0.07,0.22-0.11,0.8-0.11,1.74l0.01,7.3
			c0.8,1.31,1.6,1.96,2.4,1.96c0.52,0,0.89-0.29,1.11-0.85c0.22-0.57,0.33-1.48,0.33-2.74l0-5.67c0-0.8-0.01-1.27-0.04-1.42
			c-0.07-0.38-0.19-0.67-0.36-0.87c-0.17-0.2-0.48-0.29-0.91-0.29l-0.19,0l0-0.54l4.59-0.01l0,0.54c-0.45,0-0.75,0.07-0.92,0.21
			c-0.17,0.14-0.29,0.34-0.36,0.59c-0.1,0.31-0.14,0.91-0.14,1.78l0,5.91c0,1.25-0.07,2.18-0.22,2.78
			c-0.21,0.87-0.51,1.49-0.87,1.87c-0.36,0.38-0.8,0.57-1.31,0.57c-0.99,0-2.02-0.97-3.11-2.93L127.92,84.36z"/>
	</g>
	<g>
		<g>
			<path d="M113.88,88.21v-0.96h1.67v0.96H113.88z M114.35,90.13v-4.52h0.37v4.52H114.35z M115.14,92.8c-0.28,0-0.48-0.17-0.61-0.51
				c-0.12-0.34-0.19-0.89-0.19-1.64v-0.92h0.37v0.87c0,0.43,0.04,0.75,0.11,0.94c0.07,0.2,0.19,0.29,0.35,0.29
				c0.06,0,0.12-0.01,0.18-0.03s0.14-0.04,0.22-0.08l0.04,0.96c-0.08,0.04-0.16,0.07-0.24,0.09S115.23,92.8,115.14,92.8z"/>
			<path d="M115.99,92.7v-0.96h1.23v0.96H115.99z M116.06,88.21v-0.96h0.62l0.03,0.96H116.06z M116.4,92.7v-5.45h0.3l0.07,1.56v3.88
				H116.4z M116.77,90.35l-0.11-1.71h0.14c0.02-1,0.19-1.5,0.51-1.5c0.19,0,0.33,0.16,0.42,0.48c0.09,0.32,0.13,0.84,0.13,1.56
				h-0.37c0-0.4-0.02-0.68-0.06-0.86s-0.1-0.26-0.19-0.26c-0.16,0-0.27,0.2-0.35,0.59S116.77,89.62,116.77,90.35z"/>
			<path d="M118.72,92.8c-0.19,0-0.34-0.14-0.45-0.41c-0.11-0.27-0.16-0.66-0.16-1.16c0-0.58,0.07-1.02,0.22-1.33
				c0.15-0.31,0.35-0.46,0.62-0.46c0.11,0,0.21,0.02,0.29,0.06c0.09,0.04,0.16,0.1,0.23,0.18l-0.08,0.74
				c-0.08-0.05-0.15-0.08-0.23-0.09c-0.07-0.01-0.15-0.01-0.23-0.01c-0.32,0-0.48,0.29-0.48,0.86c0,0.24,0.03,0.42,0.08,0.55
				c0.05,0.13,0.13,0.2,0.23,0.2c0.12,0,0.21-0.06,0.29-0.17s0.14-0.27,0.17-0.45c0.04-0.18,0.06-0.37,0.06-0.56v-0.6l0.11,1.4
				h-0.15l0.06-0.17c0,0.32-0.02,0.58-0.07,0.79c-0.05,0.21-0.12,0.37-0.21,0.47S118.84,92.8,118.72,92.8z M119.37,92.75l-0.02-1.61
				l-0.05-0.45v-1.41c0-0.36-0.04-0.63-0.13-0.8c-0.09-0.17-0.22-0.26-0.39-0.27l-0.44-0.04l0.04-0.97l0.37,0.02
				c0.31,0.01,0.53,0.21,0.68,0.58c0.15,0.38,0.22,0.92,0.22,1.64v2.27l0.31,0.11v0.87L119.37,92.75z"/>
			<path d="M120.84,92.7l-0.66-5.45h0.39l0.5,4.52h0.03l0.5-4.52h0.39l-0.66,5.45H120.84z"/>
			<path d="M123.33,92.8c-0.32,0-0.56-0.24-0.73-0.73c-0.17-0.49-0.26-1.19-0.26-2.1c0-0.89,0.07-1.58,0.22-2.08
				s0.35-0.74,0.62-0.74c0.25,0,0.44,0.22,0.58,0.67c0.14,0.45,0.21,1.09,0.21,1.94c0,0.25,0,0.48-0.01,0.7h-1.3v-0.83h0.97
				c0-0.49-0.04-0.87-0.12-1.13c-0.08-0.26-0.19-0.39-0.33-0.39c-0.16,0-0.28,0.16-0.37,0.47c-0.09,0.32-0.13,0.76-0.13,1.34
				c0,0.63,0.06,1.11,0.18,1.44c0.12,0.33,0.29,0.49,0.51,0.49c0.08,0,0.15-0.01,0.23-0.04c0.07-0.03,0.15-0.06,0.23-0.11l0.04,0.96
				c-0.11,0.06-0.21,0.1-0.3,0.12C123.48,92.79,123.4,92.8,123.33,92.8z"/>
			<path d="M124.39,85.95v-0.96h0.58v0.96H124.39z M125.54,92.8c-0.21,0-0.37-0.17-0.46-0.51c-0.1-0.34-0.14-0.89-0.14-1.64v-5.65
				h0.37v5.6c0,0.29,0.01,0.52,0.03,0.7s0.06,0.32,0.11,0.4c0.05,0.09,0.13,0.13,0.24,0.13c0.1,0,0.22-0.07,0.37-0.2l0.04,0.96
				c-0.09,0.08-0.18,0.13-0.27,0.17S125.64,92.8,125.54,92.8z"/>
			<path d="M128.52,88.21v-0.96h1.67v0.96H128.52z M128.99,90.13v-4.52h0.37v4.52H128.99z M129.78,92.8c-0.28,0-0.48-0.17-0.61-0.51
				c-0.12-0.34-0.19-0.89-0.19-1.64v-0.92h0.37v0.87c0,0.43,0.04,0.75,0.11,0.94c0.07,0.2,0.19,0.29,0.35,0.29
				c0.06,0,0.12-0.01,0.18-0.03s0.14-0.04,0.22-0.08l0.04,0.96c-0.08,0.04-0.16,0.07-0.24,0.09S129.87,92.8,129.78,92.8z"/>
			<path d="M131.54,92.8c-0.26,0-0.46-0.25-0.6-0.74s-0.21-1.19-0.21-2.09c0-0.9,0.07-1.6,0.21-2.09c0.14-0.49,0.34-0.74,0.6-0.74
				s0.46,0.25,0.6,0.74c0.14,0.49,0.21,1.19,0.21,2.09c0,0.9-0.07,1.59-0.21,2.09C131.99,92.55,131.79,92.8,131.54,92.8z
				 M131.54,91.82c0.14,0,0.24-0.16,0.31-0.48c0.07-0.32,0.11-0.78,0.11-1.37c0-0.59-0.04-1.05-0.11-1.37
				c-0.07-0.32-0.18-0.48-0.31-0.48c-0.14,0-0.24,0.16-0.31,0.48c-0.07,0.32-0.11,0.78-0.11,1.37c0,0.59,0.04,1.04,0.11,1.37
				C131.3,91.66,131.4,91.82,131.54,91.82z"/>
			<path d="M135.88,92.8c-0.32,0-0.56-0.24-0.73-0.73c-0.17-0.49-0.26-1.19-0.26-2.1c0-0.89,0.07-1.58,0.22-2.08
				s0.35-0.74,0.62-0.74c0.25,0,0.44,0.22,0.58,0.67c0.14,0.45,0.21,1.09,0.21,1.94c0,0.25,0,0.48-0.01,0.7h-1.3v-0.83h0.97
				c0-0.49-0.04-0.87-0.12-1.13c-0.08-0.26-0.19-0.39-0.33-0.39c-0.16,0-0.28,0.16-0.37,0.47c-0.09,0.32-0.13,0.76-0.13,1.34
				c0,0.63,0.06,1.11,0.18,1.44c0.12,0.33,0.29,0.49,0.51,0.49c0.08,0,0.15-0.01,0.23-0.04c0.07-0.03,0.15-0.06,0.23-0.11l0.04,0.96
				c-0.11,0.06-0.21,0.1-0.3,0.12C136.03,92.79,135.95,92.8,135.88,92.8z"/>
			<path d="M138.25,92.7l-0.56-2.35l-0.74-3.09h0.42l0.57,2.45l0.74,3H138.25z M136.95,92.7l0.74-3l0.57-2.45h0.42l-0.76,3.09
				l-0.54,2.35H136.95z"/>
			<path d="M139.15,95.06v-7.81h0.33l0.04,1.15v6.66H139.15z M140.04,92.8c-0.14,0-0.26-0.1-0.34-0.29
				c-0.09-0.19-0.14-0.46-0.15-0.8h-0.16l0.12-1.55c0,0.56,0.04,0.99,0.11,1.28s0.19,0.44,0.33,0.44c0.15,0,0.26-0.16,0.34-0.47
				c0.08-0.31,0.12-0.77,0.12-1.38c0-0.64-0.04-1.13-0.12-1.46c-0.08-0.33-0.19-0.49-0.34-0.49c-0.14,0-0.25,0.15-0.33,0.44
				s-0.11,0.72-0.11,1.28l-0.12-1.55h0.14c0.02-0.34,0.07-0.61,0.16-0.8c0.09-0.19,0.21-0.29,0.35-0.29c0.24,0,0.43,0.24,0.55,0.73
				s0.19,1.2,0.19,2.15c0,0.91-0.06,1.6-0.19,2.07C140.47,92.56,140.28,92.8,140.04,92.8z"/>
			<path d="M141.12,85.95v-0.96h0.58v0.96H141.12z M142.27,92.8c-0.21,0-0.37-0.17-0.46-0.51c-0.1-0.34-0.14-0.89-0.14-1.64v-5.65
				h0.37v5.6c0,0.29,0.01,0.52,0.03,0.7s0.06,0.32,0.11,0.4c0.05,0.09,0.13,0.13,0.24,0.13c0.1,0,0.22-0.07,0.37-0.2l0.04,0.96
				c-0.09,0.08-0.18,0.13-0.27,0.17S142.37,92.8,142.27,92.8z"/>
			<path d="M144.08,92.8c-0.26,0-0.46-0.25-0.6-0.74s-0.21-1.19-0.21-2.09c0-0.9,0.07-1.6,0.21-2.09c0.14-0.49,0.34-0.74,0.6-0.74
				s0.46,0.25,0.6,0.74c0.14,0.49,0.21,1.19,0.21,2.09c0,0.9-0.07,1.59-0.21,2.09C144.54,92.55,144.34,92.8,144.08,92.8z
				 M144.08,91.82c0.14,0,0.24-0.16,0.31-0.48c0.07-0.32,0.11-0.78,0.11-1.37c0-0.59-0.04-1.05-0.11-1.37
				c-0.07-0.32-0.18-0.48-0.31-0.48c-0.14,0-0.24,0.16-0.31,0.48c-0.07,0.32-0.11,0.78-0.11,1.37c0,0.59,0.04,1.04,0.11,1.37
				C143.84,91.66,143.95,91.82,144.08,91.82z"/>
			<path d="M145.27,92.7v-0.96h1.23v0.96H145.27z M145.34,88.21v-0.96h0.62l0.03,0.96H145.34z M145.68,92.7v-5.45h0.3l0.07,1.56
				v3.88H145.68z M146.05,90.35l-0.11-1.71h0.14c0.02-1,0.19-1.5,0.51-1.5c0.19,0,0.33,0.16,0.42,0.48
				c0.09,0.32,0.13,0.84,0.13,1.56h-0.37c0-0.4-0.02-0.68-0.06-0.86s-0.1-0.26-0.19-0.26c-0.16,0-0.27,0.2-0.35,0.59
				S146.05,89.62,146.05,90.35z"/>
			<path d="M148.42,92.8c-0.32,0-0.56-0.24-0.73-0.73c-0.17-0.49-0.26-1.19-0.26-2.1c0-0.89,0.07-1.58,0.22-2.08
				s0.35-0.74,0.62-0.74c0.25,0,0.44,0.22,0.58,0.67c0.14,0.45,0.21,1.09,0.21,1.94c0,0.25,0,0.48-0.01,0.7h-1.3v-0.83h0.97
				c0-0.49-0.04-0.87-0.12-1.13c-0.08-0.26-0.19-0.39-0.33-0.39c-0.16,0-0.28,0.16-0.37,0.47c-0.09,0.32-0.13,0.76-0.13,1.34
				c0,0.63,0.06,1.11,0.18,1.44c0.12,0.33,0.29,0.49,0.51,0.49c0.08,0,0.15-0.01,0.23-0.04c0.07-0.03,0.15-0.06,0.23-0.11l0.04,0.96
				c-0.11,0.06-0.21,0.1-0.3,0.12C148.57,92.79,148.49,92.8,148.42,92.8z"/>
		</g>
	</g>
	<line class="st4" x1="114.89" y1="97.62" x2="248.27" y2="38.76"/>
	<line x1="150.37" y1="94.73" x2="114.89" y2="95.4"/>
</g>
</svg>
